:SAMPLES-PER-SECOND 30
:FULLY-SPECIFIED
:DEGREES
392
root  -2.15997 39.8157 -24.4666 130.599 -85.0053 -139.357
RightUpLeg  1.57862 -12.193 4.9633
RightLeg  17.887 -10.9923 0.810393
RightFoot  -10.3521 0.000486971 -8.12705
RightToes  0.000482159 0.542163 -0.142577
Spine  16.0508 -1.17055 11.1434
Spine1  8.44035 1.2389 -1.97138
HEad  5.39919 -0.456117 -3.97912
LeftShoulder1  8.62488 -12.982 -45.613
LeftArm  -13.2613 17.3391 -21.0958
LeftForeArm  31.4337 -74.9597 -44.85
LeftHand  -0.25398 0.0180481 5.50724
RightShoulder  4.7979 8.46546 34.1359
RightArm  -8.61212 -24.1197 25.5093
RightForeArm  39.8168 77.5987 98.6549
RightHand  1.04864 -15.1374 -13.2224
LeftUpLeg  -16.6723 -3.19482 5.56141
LeftLeg  53.0742 5.11356 7.77388
LeftFoot  -0.187419 -0.224635 2.29459
LeftToes  1.06247e-005 4.65855e-005 -8.18501e-006
393
root  -3.68919 39.9808 -24.6966 136.418 -84.466 -145.64
RightUpLeg  5.97528 -9.43091 4.54151
RightLeg  15.1567 -13.0895 1.9897
RightFoot  -10.7926 -0.0338651 -8.06922
RightToes  0.000482159 0.542163 -0.142577
Spine  16.5097 -0.7463 11.6506
Spine1  8.33524 2.02223 -3.30171
HEad  5.48406 -0.586495 -4.20994
LeftShoulder1  8.54507 -12.9177 -45.3587
LeftArm  -13.6679 17.5721 -21.0273
LeftForeArm  33.2774 -75.3883 -46.592
LeftHand  -0.25398 0.0180481 5.50724
RightShoulder  4.80267 8.48749 34.1024
RightArm  -8.36449 -23.8173 25.681
RightForeArm  40.6925 77.576 99.4039
RightHand  1.02424 -14.936 -13.2015
LeftUpLeg  -17.5378 -0.966383 5.04777
LeftLeg  42.8284 5.79524 6.17252
LeftFoot  -2.20197 -0.273171 3.54374
LeftToes  1.06247e-005 4.65855e-005 -8.18501e-006
394
root  -5.21397 40.0839 -24.94 141.665 -84.1712 -151.15
RightUpLeg  10.4608 -7.52634 4.27433
RightLeg  11.6985 -14.2171 3.05768
RightFoot  -11.5029 -0.0885047 -7.71393
RightToes  0.000482159 0.542163 -0.142577
Spine  16.7743 -0.340675 11.2029
Spine1  8.43603 2.47558 -4.11413
HEad  5.34009 -0.173086 -4.364
LeftShoulder1  8.42739 -12.81 -45.0157
LeftArm  -14.2493 18.044 -21.2113
LeftForeArm  36.2759 -76.0102 -49.4088
LeftHand  -0.25398 0.0180481 5.50724
RightShoulder  4.86964 8.64207 34.1437
RightArm  -7.91115 -23.2526 25.4517
RightForeArm  41.5918 77.5344 100.44
RightHand  1.00372 -14.6604 -13.3222
LeftUpLeg  -17.4292 4.34111 3.64578
LeftLeg  29.9404 4.91568 3.65447
LeftFoot  -2.21183 -0.205487 2.75116
LeftToes  1.06247e-005 4.65855e-005 -8.18501e-006
395
root  -6.728 40.1213 -25.1665 147.692 -83.8448 -156.732
RightUpLeg  13.8918 -6.76502 4.01655
RightLeg  8.69835 -14.1085 3.74012
RightFoot  -11.9536 -0.119344 -7.20357
RightToes  0.000482159 0.542163 -0.142577
Spine  16.2789 0.0238623 10.5283
Spine1  8.79076 2.88746 -5.12816
HEad  5.27025 0.599704 -4.27937
LeftShoulder1  8.27903 -12.7022 -44.4953
LeftArm  -14.9306 18.8108 -21.5851
LeftForeArm  39.7631 -76.6383 -52.6988
LeftHand  -0.25398 0.0180481 5.50724
RightShoulder  4.94869 8.8009 34.2674
RightArm  -7.40312 -22.617 25.2234
RightForeArm  42.3791 77.504 101.202
RightHand  0.990912 -14.5973 -13.2544
LeftUpLeg  -16.815 11.2086 1.81994
LeftLeg  16.1807 6.73328 1.11976
LeftFoot  -2.29507 -0.132644 1.85599
LeftToes  1.06247e-005 4.65855e-005 -8.18501e-006
396
root  -8.31454 39.9718 -25.3339 150.908 -82.8548 -159.228
RightUpLeg  15.4002 -7.55129 3.74245
RightLeg  9.4981 -12.5955 3.38232
RightFoot  -13.0911 -0.196477 -6.96303
RightToes  0.000482159 0.542163 -0.142577
Spine  15.1987 0.238474 10.7661
Spine1  9.32771 3.38967 -6.24668
HEad  5.41251 1.63889 -4.09934
LeftShoulder1  8.12766 -12.5629 -44.039
LeftArm  -15.5945 19.5521 -21.8888
LeftForeArm  41.9976 -77.0019 -54.9081
LeftHand  -0.25398 0.0180481 5.50724
RightShoulder  5.02956 8.9301 34.497
RightArm  -6.84799 -21.6888 25.0715
RightForeArm  41.9789 77.5373 100.525
RightHand  0.971702 -14.6086 -13.0084
LeftUpLeg  -15.2485 9.21578 3.09411
LeftLeg  5.14232 18.0672 -3.95247
LeftFoot  -4.18133 -0.118171 2.31171
LeftToes  1.06247e-005 4.65855e-005 -8.18501e-006
397
root  -9.93798 39.7233 -25.5089 152.32 -81.993 -160.823
RightUpLeg  17.1254 -10.6582 2.53155
RightLeg  12.4949 -8.8011 2.10436
RightFoot  -15.0546 -0.286946 -5.9279
RightToes  0.000482159 0.542163 -0.142577
Spine  15.0292 0.32522 10.0508
Spine1  9.79419 3.49311 -6.41294
HEad  5.77594 3.01439 -3.85531
LeftShoulder1  7.98664 -12.3612 -43.8134
LeftArm  -16.1879 20.0088 -22.0356
LeftForeArm  41.9249 -77.0049 -54.9857
LeftHand  -0.25398 0.0180481 5.50724
RightShoulder  5.12789 9.04713 34.8975
RightArm  -6.17322 -20.2387 24.8096
RightForeArm  39.6653 77.636 97.8616
RightHand  0.939156 -14.4882 -12.7738
LeftUpLeg  -13.5473 6.12311 3.45497
LeftLeg  0.689084 23.3269 -6.6379
LeftFoot  -4.78187 -0.140753 2.99143
LeftToes  1.06247e-005 4.65855e-005 -8.18501e-006
398
root  -11.539 39.4202 -25.7644 153.479 -82.2562 -163.273
RightUpLeg  19.5015 -15.1588 0.105703
RightLeg  16.8563 -3.35463 0.288073
RightFoot  -16.9454 -0.193521 -1.72993
RightToes  0.000482159 0.542163 -0.142577
Spine  16.5092 0.359515 6.92224
Spine1  9.76688 2.85002 -4.98182
HEad  6.36803 4.41106 -3.13614
LeftShoulder1  7.91895 -12.2327 -43.7954
LeftArm  -16.5582 20.1555 -21.9042
LeftForeArm  39.7876 -76.6795 -53.0491
LeftHand  -0.25398 0.0180481 5.50724
RightShoulder  5.23768 9.1359 35.469
RightArm  -5.70368 -18.8178 24.6532
RightForeArm  36.4671 77.7244 94.3156
RightHand  0.927356 -14.5102 -12.6025
LeftUpLeg  -12.5347 5.9246 1.79601
LeftLeg  4.17576 18.7399 -4.68091
LeftFoot  -1.31195 -0.396348 4.41869
LeftToes  1.06247e-005 4.65855e-005 -8.18501e-006
399
root  -13.1252 39.1456 -26.0565 156.995 -83.1578 -167.798
RightUpLeg  18.8582 -16.2451 -1.72867
RightLeg  25.346 -1.15941 -1.05726
RightFoot  -15.4135 0.0198626 4.43412
RightToes  0.000482159 0.542163 -0.142577
Spine  18.089 0.606161 2.95864
Spine1  9.17997 1.99313 -2.98503
HEad  7.02897 5.23195 -1.82214
LeftShoulder1  8.02312 -12.3566 -44.0364
LeftArm  -16.5205 19.9244 -21.1131
LeftForeArm  36.1517 -76.0562 -49.7761
LeftHand  -0.25398 0.0180481 5.50724
RightShoulder  5.33719 9.20782 36.0057
RightArm  -5.96064 -18.2083 25.1762
RightForeArm  34.1749 77.7632 91.6166
RightHand  0.96735 -14.8357 -12.6629
LeftUpLeg  -12.4373 9.33174 -0.63664
LeftLeg  9.44635 9.55636 -2.57812
LeftFoot  4.26556 -1.04502 7.44834
LeftToes  1.06247e-005 4.65855e-005 -8.18501e-006
400
root  -14.6626 39.0463 -26.2764 168.417 -83.6395 -178.774
RightUpLeg  12.4647 -14.3426 -2.97406
RightLeg  38.8871 -1.8883 -1.91362
RightFoot  -6.68714 -0.312293 7.42498
RightToes  0.000482159 0.542163 -0.142577
Spine  18.276 0.873385 -0.0116485
Spine1  8.78878 1.65122 -2.34292
HEad  7.42882 5.39902 -0.74876
LeftShoulder1  8.27329 -12.6745 -44.5422
LeftArm  -16.0896 19.0471 -19.664
LeftForeArm  31.4852 -75.1412 -45.8097
LeftHand  -0.25398 0.0180481 5.50724
RightShoulder  5.41827 9.3072 36.3055
RightArm  -6.84574 -18.2154 26.3431
RightForeArm  33.0911 77.7743 90.2345
RightHand  1.02883 -14.8658 -13.3523
LeftUpLeg  -13.6611 15.5223 -3.64002
LeftLeg  13.8037 1.79681 -1.17077
LeftFoot  6.43011 -1.4624 9.1155
LeftToes  1.06247e-005 4.65855e-005 -8.18501e-006
401
root  -16.0406 39.0082 -26.3671 -172.332 -83.0751 163.37
RightUpLeg  2.40354 -12.2553 -4.93238
RightLeg  53.0952 -1.54323 -2.55686
RightFoot  5.63544 -0.731668 5.2677
RightToes  0.000482159 0.542163 -0.142577
Spine  17.6124 1.04501 -2.11085
Spine1  9.13259 1.82503 -3.52923
HEad  7.47408 5.46471 -0.868217
LeftShoulder1  8.5037 -12.946 -45.0502
LeftArm  -15.4807 17.3987 -18.3767
LeftForeArm  26.6538 -73.9936 -41.7339
LeftHand  -0.25398 0.0180481 5.50724
RightShoulder  5.48355 9.42283 36.4287
RightArm  -7.5534 -17.8987 27.1734
RightForeArm  31.6161 77.7674 88.9987
RightHand  1.03921 -14.0557 -14.6493
LeftUpLeg  -15.5203 19.2843 -6.82035
LeftLeg  17.808 -0.516559 -0.0581349
LeftFoot  3.63564 -1.17949 8.76147
LeftToes  1.06247e-005 4.65855e-005 -8.18501e-006
402
root  -17.2882 38.9467 -26.3889 -156.484 -82.1774 148.474
RightUpLeg  -6.9258 -10.1999 -6.99363
RightLeg  63.132 -0.779683 -2.25763
RightFoot  11.6864 -0.404473 2.28983
RightToes  0.000482159 0.542163 -0.142577
Spine  17.7496 1.07859 -3.67202
Spine1  9.47378 1.86319 -4.73107
HEad  7.36 5.77394 -2.02177
LeftShoulder1  8.63293 -13.0775 -45.385
LeftArm  -14.8644 15.32 -17.9785
LeftForeArm  22.7244 -72.7699 -38.0901
LeftHand  -0.25398 0.0180481 5.50724
RightShoulder  5.5275 9.50471 36.4977
RightArm  -7.57022 -16.9303 26.8613
RightForeArm  28.3201 77.728 86.72
RightHand  0.986404 -12.9297 -15.8986
LeftUpLeg  -15.8335 19.3805 -9.06886
LeftLeg  20.6727 -0.0436881 0.355599
LeftFoot  -0.693459 -0.760554 8.21131
LeftToes  1.06247e-005 4.65855e-005 -8.18501e-006
403
root  -18.5535 39.126 -26.4091 -147.152 -82.2549 139.622
RightUpLeg  -13.7542 -9.50552 -8.28058
RightLeg  66.6753 -0.522924 -2.02768
RightFoot  10.1779 -0.184852 1.36507
RightToes  0.000482159 0.542163 -0.142577
Spine  18.5955 0.7479 -4.08921
Spine1  9.44572 1.42117 -4.67844
HEad  7.18649 6.05194 -3.1857
LeftShoulder1  8.75916 -13.1926 -45.7434
LeftArm  -14.2502 13.3543 -18.2278
LeftForeArm  20.0217 -71.6287 -35.1679
LeftHand  -0.25398 0.0180481 5.50724
RightShoulder  5.53751 9.55229 36.4216
RightArm  -7.29857 -15.8814 25.803
RightForeArm  23.7963 77.6449 83.6924
RightHand  0.95694 -12.3808 -16.6003
LeftUpLeg  -13.8146 18.8186 -9.87182
LeftLeg  20.3111 -0.494266 0.113237
LeftFoot  -2.89439 -0.565967 7.89154
LeftToes  1.06247e-005 4.65855e-005 -8.18501e-006
